{
  "accessors": [
    {
      "bufferView": 2,
      "componentType": 5126,
      "count": 28042,
      "max": [
        458.8983154296875,
        630.50341796875,
        -21.269287109375
      ],
      "min": [
        -620.0690307617188,
        -462.0140380859375,
        -249.8692626953125
      ],
      "type": "VEC3"
    },
    {
      "bufferView": 2,
      "byteOffset": 336504,
      "componentType": 5126,
      "count": 28042,
      "max": [
        1.0,
        1.0,
        1.0
      ],
      "min": [
        -1.0,
        -1.0,
        -1.0
      ],
      "type": "VEC3"
    },
    {
      "bufferView": 1,
      "componentType": 5126,
      "count": 28042,
      "max": [
        0.991233229637146,
        0.9933227896690369
      ],
      "min": [
        0.00802573561668396,
        0.003113687038421631
      ],
      "type": "VEC2"
    },
    {
      "bufferView": 0,
      "componentType": 5125,
      "count": 83277,
      "type": "SCALAR"
    },
    {
      "bufferView": 2,
      "byteOffset": 673008,
      "componentType": 5126,
      "count": 8517,
      "max": [
        440.4874267578125,
        611.4534301757813,
        -36.50927734375
      ],
      "min": [
        -601.0192260742188,
        -442.96405029296875,
        -250.28355407714844
      ],
      "type": "VEC3"
    },
    {
      "bufferView": 2,
      "byteOffset": 775212,
      "componentType": 5126,
      "count": 8517,
      "max": [
        1.0,
        1.0,
        1.0
      ],
      "min": [
        -1.0,
        -1.0,
        -1.0
      ],
      "type": "VEC3"
    },
    {
      "bufferView": 1,
      "byteOffset": 224336,
      "componentType": 5126,
      "count": 8517,
      "max": [
        0.9835712909698486,
        0.9786685705184937
      ],
      "min": [
        0.0064084529876708984,
        0.00909280776977539
      ],
      "type": "VEC2"
    },
    {
      "bufferView": 0,
      "byteOffset": 333108,
      "componentType": 5125,
      "count": 16788,
      "type": "SCALAR"
    },
    {
      "bufferView": 2,
      "byteOffset": 877416,
      "componentType": 5126,
      "count": 63923,
      "max": [
        459.1448669433594,
        630.3199462890625,
        -36.69003677368164
      ],
      "min": [
        -620.1046752929688,
        -462.197509765625,
        -250.05014038085938
      ],
      "type": "VEC3"
    },
    {
      "bufferView": 2,
      "byteOffset": 1644492,
      "componentType": 5126,
      "count": 63923,
      "max": [
        1.0,
        1.0,
        1.0
      ],
      "min": [
        -1.0,
        -1.0,
        -1.0
      ],
      "type": "VEC3"
    },
    {
      "bufferView": 1,
      "byteOffset": 292472,
      "componentType": 5126,
      "count": 63923,
      "max": [
        0.46344470977783203,
        0.9893931150436401
      ],
      "min": [
        0.011505484580993652,
        0.36359697580337524
      ],
      "type": "VEC2"
    },
    {
      "bufferView": 0,
      "byteOffset": 400260,
      "componentType": 5125,
      "count": 217122,
      "type": "SCALAR"
    },
    {
      "bufferView": 2,
      "byteOffset": 2411568,
      "componentType": 5126,
      "count": 63831,
      "max": [
        459.1805419921875,
        630.50341796875,
        -36.50927734375
      ],
      "min": [
        -620.0690307617188,
        -462.0140380859375,
        -250.05014038085938
      ],
      "type": "VEC3"
    },
    {
      "bufferView": 2,
      "byteOffset": 3177540,
      "componentType": 5126,
      "count": 63831,
      "max": [
        1.0,
        1.0,
        1.0
      ],
      "min": [
        -1.0,
        -1.0,
        -1.0
      ],
      "type": "VEC3"
    },
    {
      "bufferView": 1,
      "byteOffset": 803856,
      "componentType": 5126,
      "count": 63831,
      "max": [
        0.9924689531326294,
        0.9919326305389404
      ],
      "min": [
        0.0032766908407211304,
        0.0385323166847229
      ],
      "type": "VEC2"
    },
    {
      "bufferView": 0,
      "byteOffset": 1268748,
      "componentType": 5125,
      "count": 182916,
      "type": "SCALAR"
    },
    {
      "bufferView": 2,
      "byteOffset": 3943512,
      "componentType": 5126,
      "count": 11445,
      "max": [
        430.768310546875,
        495.208984375,
        -36.5093994140625
      ],
      "min": [
        -585.3919677734375,
        -442.96405029296875,
        -248.442626953125
      ],
      "type": "VEC3"
    },
    {
      "bufferView": 2,
      "byteOffset": 4080852,
      "componentType": 5126,
      "count": 11445,
      "max": [
        1.0,
        1.0,
        1.0
      ],
      "min": [
        -1.0,
        -1.0,
        -1.0
      ],
      "type": "VEC3"
    },
    {
      "bufferView": 1,
      "byteOffset": 1314504,
      "componentType": 5126,
      "count": 11445,
      "max": [
        0.8284271359443665,
        0.9893931150436401
      ],
      "min": [
        0.020794253796339035,
        0.31874412298202515
      ],
      "type": "VEC2"
    },
    {
      "bufferView": 0,
      "byteOffset": 2000412,
      "componentType": 5125,
      "count": 40707,
      "type": "SCALAR"
    },
    {
      "bufferView": 2,
      "byteOffset": 4218192,
      "componentType": 5126,
      "count": 510,
      "max": [
        355.1575927734375,
        -384.4679260253906,
        -116.3778076171875
      ],
      "min": [
        33.58150100708008,
        -407.8250732421875,
        -134.47142028808594
      ],
      "type": "VEC3"
    },
    {
      "bufferView": 2,
      "byteOffset": 4224312,
      "componentType": 5126,
      "count": 510,
      "max": [
        1.0,
        1.0,
        0.9754884243011475
      ],
      "min": [
        -1.0,
        -1.0,
        -0.9906310439109802
      ],
      "type": "VEC3"
    },
    {
      "bufferView": 1,
      "byteOffset": 1406064,
      "componentType": 5126,
      "count": 510,
      "max": [
        0.8234579563140869,
        0.9882248044013977
      ],
      "min": [
        0.2500605881214142,
        0.4960395097732544
      ],
      "type": "VEC2"
    },
    {
      "bufferView": 0,
      "byteOffset": 2163240,
      "componentType": 5125,
      "count": 1380,
      "type": "SCALAR"
    }
  ],
  "asset": {
    "extras": {
      "author": "Apartments Near Me (https://sketchfab.com/apartmentsnearme)",
      "license": "CC-BY-4.0 (http://creativecommons.org/licenses/by/4.0/)",
      "source": "https://sketchfab.com/3d-models/2-bedroom-apartment-winbranch-complex-1c7620bb368849f4971b9924fc8ce233",
      "title": "2 bedroom apartment winbranch complex"
    },
    "generator": "Sketchfab-12.68.0",
    "version": "2.0"
  },
  "bufferViews": [
    {
      "buffer": 0,
      "byteLength": 2168760,
      "name": "floatBufferViews",
      "target": 34963
    },
    {
      "buffer": 0,
      "byteLength": 1410144,
      "byteOffset": 2168760,
      "byteStride": 8,
      "name": "floatBufferViews",
      "target": 34962
    },
    {
      "buffer": 0,
      "byteLength": 4230432,
      "byteOffset": 3578904,
      "byteStride": 12,
      "name": "floatBufferViews",
      "target": 34962
    }
  ],
  "buffers": [
    {
      "byteLength": 7809336,
      "uri": "scene.bin"
    }
  ],
  "images": [
    {
      "uri": "textures/texture_baseColor.jpeg"
    },
    {
      "uri": "textures/woood_baseColor.jpeg"
    },
    {
      "uri": "textures/color_baseColor.jpeg"
    }
  ],
  "materials": [
    {
      "doubleSided": true,
      "name": "texture",
      "pbrMetallicRoughness": {
        "baseColorTexture": {
          "index": 0
        },
        "metallicFactor": 0.5,
        "roughnessFactor": 0.5
      }
    },
    {
      "doubleSided": true,
      "name": "woood",
      "pbrMetallicRoughness": {
        "baseColorTexture": {
          "index": 1
        },
        "metallicFactor": 0.5,
        "roughnessFactor": 0.5
      }
    },
    {
      "doubleSided": true,
      "name": "color",
      "pbrMetallicRoughness": {
        "baseColorTexture": {
          "index": 2
        },
        "metallicFactor": 0.5,
        "roughnessFactor": 0.5
      }
    }
  ],
  "meshes": [
    {
      "name": "Object_0",
      "primitives": [
        {
          "attributes": {
            "NORMAL": 1,
            "POSITION": 0,
            "TEXCOORD_0": 2
          },
          "indices": 3,
          "material": 0,
          "mode": 4
        }
      ]
    },
    {
      "name": "Object_1",
      "primitives": [
        {
          "attributes": {
            "NORMAL": 5,
            "POSITION": 4,
            "TEXCOORD_0": 6
          },
          "indices": 7,
          "material": 1,
          "mode": 4
        }
      ]
    },
    {
      "name": "Object_2",
      "primitives": [
        {
          "attributes": {
            "NORMAL": 9,
            "POSITION": 8,
            "TEXCOORD_0": 10
          },
          "indices": 11,
          "material": 2,
          "mode": 4
        }
      ]
    },
    {
      "name": "Object_3",
      "primitives": [
        {
          "attributes": {
            "NORMAL": 13,
            "POSITION": 12,
            "TEXCOORD_0": 14
          },
          "indices": 15,
          "material": 2,
          "mode": 4
        }
      ]
    },
    {
      "name": "Object_4",
      "primitives": [
        {
          "attributes": {
            "NORMAL": 17,
            "POSITION": 16,
            "TEXCOORD_0": 18
          },
          "indices": 19,
          "material": 2,
          "mode": 4
        }
      ]
    },
    {
      "name": "Object_5",
      "primitives": [
        {
          "attributes": {
            "NORMAL": 21,
            "POSITION": 20,
            "TEXCOORD_0": 22
          },
          "indices": 23,
          "material": 2,
          "mode": 4
        }
      ]
    }
  ],
  "nodes": [
    {
      "children": [
        1
      ],
      "matrix": [
        1.0,
        0.0,
        0.0,
        0.0,
        0.0,
        2.220446049250313e-16,
        -1.0,
        0.0,
        0.0,
        1.0,
        2.220446049250313e-16,
        0.0,
        0.0,
        0.0,
        0.0,
        1.0
      ],
      "name": "Sketchfab_model"
    },
    {
      "children": [
        2
      ],
      "name": "root"
    },
    {
      "children": [
        3
      ],
      "matrix": [
        1.0,
        0.0,
        0.0,
        0.0,
        0.0,
        2.220446049250313e-16,
        1.0,
        0.0,
        0.0,
        -1.0,
        2.220446049250313e-16,
        0.0,
        0.0,
        0.0,
        0.0,
        1.0
      ],
      "name": "GLTF_SceneRootNode"
    },
    {
      "children": [
        4
      ],
      "matrix": [
        1.0,
        0.0,
        0.0,
        0.0,
        0.0,
        1.0,
        0.0,
        0.0,
        0.0,
        0.0,
        1.0,
        0.0,
        1.9273550510406494,
        -0.23502986133098602,
        0.28120478987693787,
        1.0
      ],
      "name": "Fp_8"
    },
    {
      "children": [
        5,
        8,
        11
      ],
      "matrix": [
        0.009999999776482582,
        0.0,
        0.0,
        0.0,
        0.0,
        0.009999999776482582,
        0.0,
        0.0,
        0.0,
        0.0,
        0.009999999776482582,
        0.0,
        0.0,
        0.0,
        0.0,
        1.0
      ],
      "name": "Assembly-7_7"
    },
    {
      "children": [
        6
      ],
      "matrix": [
        1.0,
        0.0,
        0.0,
        0.0,
        0.0,
        -1.685873969314855e-07,
        0.9999999999999858,
        0.0,
        0.0,
        -0.9999999999999858,
        -1.685873969314855e-07,
        0.0,
        0.0,
        0.0,
        0.0,
        1.0
      ],
      "name": "3DGeom~6_2"
    },
    {
      "children": [
        7
      ],
      "name": "Assembly-4_1"
    },
    {
      "mesh": 0,
      "name": "Object_7"
    },
    {
      "children": [
        9
      ],
      "matrix": [
        1.0,
        0.0,
        0.0,
        0.0,
        0.0,
        -1.685873969314855e-07,
        0.9999999999999858,
        0.0,
        0.0,
        -0.9999999999999858,
        -1.685873969314855e-07,
        0.0,
        0.0,
        0.0,
        0.0,
        1.0
      ],
      "name": "3DGeom~7_4"
    },
    {
      "children": [
        10
      ],
      "name": "Assembly-6_3"
    },
    {
      "mesh": 1,
      "name": "Object_10"
    },
    {
      "children": [
        12
      ],
      "matrix": [
        1.0,
        0.0,
        0.0,
        0.0,
        0.0,
        -1.685873969314855e-07,
        0.9999999999999858,
        0.0,
        0.0,
        -0.9999999999999858,
        -1.685873969314855e-07,
        0.0,
        0.0,
        0.0,
        0.0,
        1.0
      ],
      "name": "Gray1_6"
    },
    {
      "children": [
        13,
        14,
        15,
        16
      ],
      "name": "Assembly-2_5"
    },
    {
      "mesh": 2,
      "name": "Object_13"
    },
    {
      "mesh": 3,
      "name": "Object_14"
    },
    {
      "mesh": 4,
      "name": "Object_15"
    },
    {
      "mesh": 5,
      "name": "Object_16"
    }
  ],
  "samplers": [
    {
      "magFilter": 9729,
      "minFilter": 9987,
      "wrapS": 10497,
      "wrapT": 10497
    }
  ],
  "scene": 0,
  "scenes": [
    {
      "name": "Sketchfab_Scene",
      "nodes": [
        0
      ]
    }
  ],
  "textures": [
    {
      "sampler": 0,
      "source": 0
    },
    {
      "sampler": 0,
      "source": 1
    },
    {
      "sampler": 0,
      "source": 2
    }
  ]
}
