{
  "accessors": [
    {
      "bufferView": 2,
      "componentType": 5126,
      "count": 338,
      "max": [
        6.004933834075928,
        5.432806491851807,
        4.955172538757324
      ],
      "min": [
        -5.995067596435547,
        0.21785330772399902,
        -3.044827461242676
      ],
      "type": "VEC3"
    },
    {
      "bufferView": 2,
      "byteOffset": 4056,
      "componentType": 5126,
      "count": 338,
      "max": [
        1.0,
        1.0,
        1.0
      ],
      "min": [
        -1.0,
        -1.0,
        -1.0
      ],
      "type": "VEC3"
    },
    {
      "bufferView": 3,
      "componentType": 5126,
      "count": 338,
      "max": [
        1.0,
        1.0,
        1.0,
        1.0
      ],
      "min": [
        -1.0,
        -1.0,
        -1.0,
        -1.0
      ],
      "type": "VEC4"
    },
    {
      "bufferView": 1,
      "componentType": 5126,
      "count": 338,
      "max": [
        1.0,
        1.0
      ],
      "min": [
        0.0,
        0.0
      ],
      "type": "VEC2"
    },
    {
      "bufferView": 0,
      "componentType": 5125,
      "count": 741,
      "type": "SCALAR"
    },
    {
      "bufferView": 2,
      "byteOffset": 8112,
      "componentType": 5126,
      "count": 424,
      "max": [
        4.782190799713135,
        19.527055740356445,
        4.2845659255981445
      ],
      "min": [
        -4.2845659255981445,
        -0.18731212615966797,
        -4.339660167694092
      ],
      "type": "VEC3"
    },
    {
      "bufferView": 2,
      "byteOffset": 13200,
      "componentType": 5126,
      "count": 424,
      "max": [
        1.0,
        1.0,
        1.0
      ],
      "min": [
        -1.0,
        -1.0,
        -1.0
      ],
      "type": "VEC3"
    },
    {
      "bufferView": 3,
      "byteOffset": 5408,
      "componentType": 5126,
      "count": 424,
      "max": [
        1.0,
        1.0,
        1.0,
        1.0
      ],
      "min": [
        -1.0,
        -1.0,
        -1.0,
        -1.0
      ],
      "type": "VEC4"
    },
    {
      "bufferView": 1,
      "byteOffset": 2704,
      "componentType": 5126,
      "count": 424,
      "max": [
        1.0,
        1.0
      ],
      "min": [
        0.0,
        0.0
      ],
      "type": "VEC2"
    },
    {
      "bufferView": 0,
      "byteOffset": 2964,
      "componentType": 5125,
      "count": 708,
      "type": "SCALAR"
    },
    {
      "bufferView": 2,
      "byteOffset": 18288,
      "componentType": 5126,
      "count": 424,
      "max": [
        4.782190799713135,
        19.527055740356445,
        4.2845659255981445
      ],
      "min": [
        -4.2845659255981445,
        -0.18731212615966797,
        -4.339660167694092
      ],
      "type": "VEC3"
    },
    {
      "bufferView": 2,
      "byteOffset": 23376,
      "componentType": 5126,
      "count": 424,
      "max": [
        1.0,
        1.0,
        1.0
      ],
      "min": [
        -1.0,
        -1.0,
        -1.0
      ],
      "type": "VEC3"
    },
    {
      "bufferView": 3,
      "byteOffset": 12192,
      "componentType": 5126,
      "count": 424,
      "max": [
        1.0,
        1.0,
        1.0,
        1.0
      ],
      "min": [
        -1.0,
        -1.0,
        -1.0,
        -1.0
      ],
      "type": "VEC4"
    },
    {
      "bufferView": 1,
      "byteOffset": 6096,
      "componentType": 5126,
      "count": 424,
      "max": [
        1.0,
        1.0
      ],
      "min": [
        0.0,
        0.0
      ],
      "type": "VEC2"
    },
    {
      "bufferView": 0,
      "byteOffset": 5796,
      "componentType": 5125,
      "count": 708,
      "type": "SCALAR"
    },
    {
      "bufferView": 2,
      "byteOffset": 28464,
      "componentType": 5126,
      "count": 424,
      "max": [
        4.782190799713135,
        19.527055740356445,
        4.2845659255981445
      ],
      "min": [
        -4.2845659255981445,
        -0.18731212615966797,
        -4.339660167694092
      ],
      "type": "VEC3"
    },
    {
      "bufferView": 2,
      "byteOffset": 33552,
      "componentType": 5126,
      "count": 424,
      "max": [
        1.0,
        1.0,
        1.0
      ],
      "min": [
        -1.0,
        -1.0,
        -1.0
      ],
      "type": "VEC3"
    },
    {
      "bufferView": 3,
      "byteOffset": 18976,
      "componentType": 5126,
      "count": 424,
      "max": [
        1.0,
        1.0,
        1.0,
        1.0
      ],
      "min": [
        -1.0,
        -1.0,
        -1.0,
        -1.0
      ],
      "type": "VEC4"
    },
    {
      "bufferView": 1,
      "byteOffset": 9488,
      "componentType": 5126,
      "count": 424,
      "max": [
        1.0,
        1.0
      ],
      "min": [
        0.0,
        0.0
      ],
      "type": "VEC2"
    },
    {
      "bufferView": 0,
      "byteOffset": 8628,
      "componentType": 5125,
      "count": 708,
      "type": "SCALAR"
    },
    {
      "bufferView": 2,
      "byteOffset": 38640,
      "componentType": 5126,
      "count": 424,
      "max": [
        4.782190799713135,
        19.527055740356445,
        4.2845659255981445
      ],
      "min": [
        -4.2845659255981445,
        -0.18731212615966797,
        -4.339660167694092
      ],
      "type": "VEC3"
    },
    {
      "bufferView": 2,
      "byteOffset": 43728,
      "componentType": 5126,
      "count": 424,
      "max": [
        1.0,
        1.0,
        1.0
      ],
      "min": [
        -1.0,
        -1.0,
        -1.0
      ],
      "type": "VEC3"
    },
    {
      "bufferView": 3,
      "byteOffset": 25760,
      "componentType": 5126,
      "count": 424,
      "max": [
        1.0,
        1.0,
        1.0,
        1.0
      ],
      "min": [
        -1.0,
        -1.0,
        -1.0,
        -1.0
      ],
      "type": "VEC4"
    },
    {
      "bufferView": 1,
      "byteOffset": 12880,
      "componentType": 5126,
      "count": 424,
      "max": [
        1.0,
        1.0
      ],
      "min": [
        0.0,
        0.0
      ],
      "type": "VEC2"
    },
    {
      "bufferView": 0,
      "byteOffset": 11460,
      "componentType": 5125,
      "count": 708,
      "type": "SCALAR"
    }
  ],
  "asset": {
    "extras": {
      "author": "m.flowerlily (https://sketchfab.com/m.flowerlily)",
      "license": "CC-BY-4.0 (http://creativecommons.org/licenses/by/4.0/)",
      "source": "https://sketchfab.com/3d-models/table-and-chairs-d7c7727a007c4507acb4ff006edaff8e",
      "title": "Table and Chairs"
    },
    "generator": "Sketchfab-12.67.0",
    "version": "2.0"
  },
  "bufferViews": [
    {
      "buffer": 0,
      "byteLength": 14292,
      "name": "floatBufferViews",
      "target": 34963
    },
    {
      "buffer": 0,
      "byteLength": 16272,
      "byteOffset": 14292,
      "byteStride": 8,
      "name": "floatBufferViews",
      "target": 34962
    },
    {
      "buffer": 0,
      "byteLength": 48816,
      "byteOffset": 30564,
      "byteStride": 12,
      "name": "floatBufferViews",
      "target": 34962
    },
    {
      "buffer": 0,
      "byteLength": 32544,
      "byteOffset": 79380,
      "byteStride": 16,
      "name": "floatBufferViews",
      "target": 34962
    }
  ],
  "buffers": [
    {
      "byteLength": 111924,
      "uri": "scene.bin"
    }
  ],
  "images": [
    {
      "uri": "textures/lambert1_baseColor.jpeg"
    },
    {
      "uri": "textures/lambert1_metallicRoughness.png"
    },
    {
      "uri": "textures/lambert1_normal.png"
    }
  ],
  "materials": [
    {
      "doubleSided": true,
      "name": "lambert1",
      "normalTexture": {
        "index": 2
      },
      "pbrMetallicRoughness": {
        "baseColorTexture": {
          "index": 0
        },
        "metallicRoughnessTexture": {
          "index": 1
        }
      }
    }
  ],
  "meshes": [
    {
      "name": "pCube5_lambert1_0",
      "primitives": [
        {
          "attributes": {
            "NORMAL": 1,
            "POSITION": 0,
            "TANGENT": 2,
            "TEXCOORD_0": 3
          },
          "indices": 4,
          "material": 0,
          "mode": 4
        }
      ]
    },
    {
      "name": "group1_lambert1_0",
      "primitives": [
        {
          "attributes": {
            "NORMAL": 6,
            "POSITION": 5,
            "TANGENT": 7,
            "TEXCOORD_0": 8
          },
          "indices": 9,
          "material": 0,
          "mode": 4
        }
      ]
    },
    {
      "name": "group2_lambert1_0",
      "primitives": [
        {
          "attributes": {
            "NORMAL": 11,
            "POSITION": 10,
            "TANGENT": 12,
            "TEXCOORD_0": 13
          },
          "indices": 14,
          "material": 0,
          "mode": 4
        }
      ]
    },
    {
      "name": "group3_lambert1_0",
      "primitives": [
        {
          "attributes": {
            "NORMAL": 16,
            "POSITION": 15,
            "TANGENT": 17,
            "TEXCOORD_0": 18
          },
          "indices": 19,
          "material": 0,
          "mode": 4
        }
      ]
    },
    {
      "name": "group4_lambert1_0",
      "primitives": [
        {
          "attributes": {
            "NORMAL": 21,
            "POSITION": 20,
            "TANGENT": 22,
            "TEXCOORD_0": 23
          },
          "indices": 24,
          "material": 0,
          "mode": 4
        }
      ]
    }
  ],
  "nodes": [
    {
      "children": [
        1
      ],
      "matrix": [
        1.0,
        0.0,
        0.0,
        0.0,
        0.0,
        2.220446049250313e-16,
        -1.0,
        0.0,
        0.0,
        1.0,
        2.220446049250313e-16,
        0.0,
        0.0,
        0.0,
        0.0,
        1.0
      ],
      "name": "Sketchfab_model"
    },
    {
      "children": [
        2
      ],
      "matrix": [
        0.009999999776482582,
        0.0,
        0.0,
        0.0,
        0.0,
        0.0,
        0.009999999776482582,
        0.0,
        0.0,
        -0.009999999776482582,
        0.0,
        0.0,
        0.0,
        0.0,
        0.0,
        1.0
      ],
      "name": "1366d49787f1455c8741506691b44e00.fbx"
    },
    {
      "children": [
        3,
        5,
        7,
        9,
        11
      ],
      "name": "RootNode"
    },
    {
      "children": [
        4
      ],
      "matrix": [
        1.0,
        0.0,
        0.0,
        0.0,
        0.0,
        1.0771098136901855,
        0.0,
        0.0,
        0.0,
        0.0,
        1.0,
        0.0,
        -0.42114266753196716,
        -0.21786069869995117,
        0.0,
        1.0
      ],
      "name": "pCube5"
    },
    {
      "mesh": 0,
      "name": "pCube5_lambert1_0"
    },
    {
      "children": [
        6
      ],
      "matrix": [
        0.4657723605632782,
        0.0,
        0.0,
        0.0,
        0.0,
        0.4657723605632782,
        0.0,
        0.0,
        0.0,
        0.0,
        0.4657723605632782,
        0.0,
        6.093070983886719,
        -0.08337785303592682,
        1.018036961555481,
        1.0
      ],
      "name": "group1"
    },
    {
      "mesh": 1,
      "name": "group1_lambert1_0"
    },
    {
      "children": [
        8
      ],
      "matrix": [
        -0.4657723605632782,
        5.704066304951256e-17,
        5.704066304951255e-17,
        0.0,
        5.704066304951256e-17,
        0.4657723605632782,
        5.704066304951256e-17,
        0.0,
        -5.704066304951255e-17,
        5.704066304951256e-17,
        -0.4657723605632782,
        0.0,
        -6.824979782104492,
        -0.08337785303592682,
        0.905430257320404,
        1.0
      ],
      "name": "group2"
    },
    {
      "mesh": 2,
      "name": "group2_lambert1_0"
    },
    {
      "children": [
        10
      ],
      "matrix": [
        1.0342223978627234e-16,
        0.0,
        -0.4657723605632782,
        0.0,
        0.0,
        0.4657723605632782,
        0.0,
        0.0,
        0.4657723605632782,
        0.0,
        1.0342223978627234e-16,
        0.0,
        -0.6004147529602051,
        -0.08337785303592682,
        -1.9845513105392456,
        1.0
      ],
      "name": "group3"
    },
    {
      "mesh": 3,
      "name": "group3_lambert1_0"
    },
    {
      "children": [
        12
      ],
      "matrix": [
        1.0342223978627234e-16,
        0.0,
        0.4657723605632782,
        0.0,
        0.0,
        0.4657723605632782,
        0.0,
        0.0,
        -0.4657723605632782,
        0.0,
        1.0342223978627234e-16,
        0.0,
        -0.6461902260780334,
        -0.08337785303592682,
        4.205348968505859,
        1.0
      ],
      "name": "group4"
    },
    {
      "mesh": 4,
      "name": "group4_lambert1_0"
    }
  ],
  "samplers": [
    {
      "magFilter": 9729,
      "minFilter": 9987,
      "wrapS": 10497,
      "wrapT": 10497
    }
  ],
  "scene": 0,
  "scenes": [
    {
      "name": "Sketchfab_Scene",
      "nodes": [
        0
      ]
    }
  ],
  "textures": [
    {
      "sampler": 0,
      "source": 0
    },
    {
      "sampler": 0,
      "source": 1
    },
    {
      "sampler": 0,
      "source": 2
    }
  ]
}
