{
  "accessors": [
    {
      "bufferView": 2,
      "componentType": 5126,
      "count": 40,
      "max": [
        0.022669155150651932,
        0.021220378577709198,
        0.05892986059188843
      ],
      "min": [
        -0.02201765589416027,
        -0.026951218023896217,
        -0.058574918657541275
      ],
      "type": "VEC3"
    },
    {
      "bufferView": 2,
      "byteOffset": 480,
      "componentType": 5126,
      "count": 40,
      "max": [
        0.981302797794342,
        0.3931518793106079,
        0.7122030258178711
      ],
      "min": [
        0.6973094940185547,
        -0.06543239206075668,
        0.1810072511434555
      ],
      "type": "VEC3"
    },
    {
      "bufferView": 3,
      "componentType": 5126,
      "count": 40,
      "max": [
        0.3271735608577728,
        -0.9000442028045654,
        0.3598420023918152,
        1.0
      ],
      "min": [
        -0.15391817688941956,
        -0.9888246059417725,
        0.11970850080251694,
        1.0
      ],
      "type": "VEC4"
    },
    {
      "bufferView": 1,
      "componentType": 5126,
      "count": 40,
      "max": [
        0.8543263673782349,
        0.8481925129890442
      ],
      "min": [
        0.0020305118523538113,
        0.00203706044703722
      ],
      "type": "VEC2"
    },
    {
      "bufferView": 1,
      "byteOffset": 320,
      "componentType": 5126,
      "count": 40,
      "max": [
        0.8543263673782349,
        0.8481925129890442
      ],
      "min": [
        0.0020305118523538113,
        0.00203706044703722
      ],
      "type": "VEC2"
    },
    {
      "bufferView": 1,
      "byteOffset": 640,
      "componentType": 5126,
      "count": 40,
      "max": [
        0.8543263673782349,
        0.8481925129890442
      ],
      "min": [
        0.0020305118523538113,
        0.00203706044703722
      ],
      "type": "VEC2"
    },
    {
      "bufferView": 1,
      "byteOffset": 960,
      "componentType": 5126,
      "count": 40,
      "max": [
        0.8543263673782349,
        0.8481925129890442
      ],
      "min": [
        0.0020305118523538113,
        0.00203706044703722
      ],
      "type": "VEC2"
    },
    {
      "bufferView": 0,
      "componentType": 5125,
      "count": 108,
      "type": "SCALAR"
    },
    {
      "bufferView": 2,
      "byteOffset": 960,
      "componentType": 5126,
      "count": 1272,
      "max": [
        0.023684293031692505,
        0.02210848592221737,
        0.061897486448287964
      ],
      "min": [
        -0.025187376886606216,
        -0.027934690937399864,
        -0.06254545599222183
      ],
      "type": "VEC3"
    },
    {
      "bufferView": 2,
      "byteOffset": 16224,
      "componentType": 5126,
      "count": 1272,
      "max": [
        0.9972276091575623,
        0.9938562512397766,
        0.9983429908752441
      ],
      "min": [
        -0.9992468357086182,
        -0.9959474802017212,
        -0.9995745420455933
      ],
      "type": "VEC3"
    },
    {
      "bufferView": 3,
      "byteOffset": 640,
      "componentType": 5126,
      "count": 1272,
      "max": [
        0.9996594190597534,
        0.9980848431587219,
        0.9996680617332458,
        1.0
      ],
      "min": [
        -0.999948263168335,
        -0.9999377727508545,
        -0.9976332187652588,
        1.0
      ],
      "type": "VEC4"
    },
    {
      "bufferView": 1,
      "byteOffset": 1280,
      "componentType": 5126,
      "count": 1272,
      "max": [
        0.9345594048500061,
        0.9978892207145691
      ],
      "min": [
        0.00219513475894928,
        0.0021144766360521317
      ],
      "type": "VEC2"
    },
    {
      "bufferView": 1,
      "byteOffset": 11456,
      "componentType": 5126,
      "count": 1272,
      "max": [
        0.9345594048500061,
        0.9978892207145691
      ],
      "min": [
        0.00219513475894928,
        0.0021144766360521317
      ],
      "type": "VEC2"
    },
    {
      "bufferView": 1,
      "byteOffset": 21632,
      "componentType": 5126,
      "count": 1272,
      "max": [
        0.9345594048500061,
        0.9978892207145691
      ],
      "min": [
        0.00219513475894928,
        0.0021144766360521317
      ],
      "type": "VEC2"
    },
    {
      "bufferView": 1,
      "byteOffset": 31808,
      "componentType": 5126,
      "count": 1272,
      "max": [
        0.9345594048500061,
        0.9978892207145691
      ],
      "min": [
        0.00219513475894928,
        0.0021144766360521317
      ],
      "type": "VEC2"
    },
    {
      "bufferView": 0,
      "byteOffset": 432,
      "componentType": 5125,
      "count": 6696,
      "type": "SCALAR"
    },
    {
      "bufferView": 2,
      "byteOffset": 31488,
      "componentType": 5126,
      "count": 220,
      "max": [
        0.00019703220459632576,
        -0.0030946682672947645,
        0.008348114788532257
      ],
      "min": [
        -0.01612907648086548,
        -0.013042012229561806,
        -0.014236458577215672
      ],
      "type": "VEC3"
    },
    {
      "bufferView": 2,
      "byteOffset": 34128,
      "componentType": 5126,
      "count": 220,
      "max": [
        0.9948188066482544,
        0.964688777923584,
        0.9974457621574402
      ],
      "min": [
        -0.9899205565452576,
        -0.9613666534423828,
        -0.9909767508506775
      ],
      "type": "VEC3"
    },
    {
      "bufferView": 3,
      "byteOffset": 20992,
      "componentType": 5126,
      "count": 220,
      "max": [
        0.881001889705658,
        0.997917890548706,
        0.9887927770614624,
        1.0
      ],
      "min": [
        -0.9279412031173706,
        -0.9715625643730164,
        -0.9952101111412048,
        1.0
      ],
      "type": "VEC4"
    },
    {
      "bufferView": 1,
      "byteOffset": 41984,
      "componentType": 5126,
      "count": 220,
      "max": [
        0.4356791377067566,
        0.6633917093276978
      ],
      "min": [
        0.002022482454776764,
        0.0020417124032974243
      ],
      "type": "VEC2"
    },
    {
      "bufferView": 1,
      "byteOffset": 43744,
      "componentType": 5126,
      "count": 220,
      "max": [
        0.4356791377067566,
        0.6633917093276978
      ],
      "min": [
        0.002022482454776764,
        0.0020417124032974243
      ],
      "type": "VEC2"
    },
    {
      "bufferView": 1,
      "byteOffset": 45504,
      "componentType": 5126,
      "count": 220,
      "max": [
        0.4356791377067566,
        0.6633917093276978
      ],
      "min": [
        0.002022482454776764,
        0.0020417124032974243
      ],
      "type": "VEC2"
    },
    {
      "bufferView": 1,
      "byteOffset": 47264,
      "componentType": 5126,
      "count": 220,
      "max": [
        0.4356791377067566,
        0.6633917093276978
      ],
      "min": [
        0.002022482454776764,
        0.0020417124032974243
      ],
      "type": "VEC2"
    },
    {
      "bufferView": 0,
      "byteOffset": 27216,
      "componentType": 5125,
      "count": 1056,
      "type": "SCALAR"
    },
    {
      "bufferView": 2,
      "byteOffset": 36768,
      "componentType": 5126,
      "count": 48,
      "max": [
        0.02132297120988369,
        0.0074443574994802475,
        0.06036349758505821
      ],
      "min": [
        -0.027680721133947372,
        0.006659049540758133,
        -0.06326329708099365
      ],
      "type": "VEC3"
    },
    {
      "bufferView": 2,
      "byteOffset": 37344,
      "componentType": 5126,
      "count": 48,
      "max": [
        0.8473018407821655,
        0.6417214274406433,
        0.8346738815307617
      ],
      "min": [
        -0.837329626083374,
        -0.6290890574455261,
        -0.8074262738227844
      ],
      "type": "VEC3"
    },
    {
      "bufferView": 3,
      "byteOffset": 24512,
      "componentType": 5126,
      "count": 48,
      "max": [
        0.9343557357788086,
        0.8502011299133301,
        0.9402649402618408,
        1.0
      ],
      "min": [
        -0.9044567942619324,
        -0.8582297563552856,
        -0.9153738617897034,
        1.0
      ],
      "type": "VEC4"
    },
    {
      "bufferView": 1,
      "byteOffset": 49024,
      "componentType": 5126,
      "count": 48,
      "max": [
        0.9939893484115601,
        0.02732127532362938
      ],
      "min": [
        0.0021372458431869745,
        0.0020172414369881153
      ],
      "type": "VEC2"
    },
    {
      "bufferView": 1,
      "byteOffset": 49408,
      "componentType": 5126,
      "count": 48,
      "max": [
        0.9939893484115601,
        0.02732127532362938
      ],
      "min": [
        0.0021372458431869745,
        0.0020172414369881153
      ],
      "type": "VEC2"
    },
    {
      "bufferView": 1,
      "byteOffset": 49792,
      "componentType": 5126,
      "count": 48,
      "max": [
        0.9939893484115601,
        0.02732127532362938
      ],
      "min": [
        0.0021372458431869745,
        0.0020172414369881153
      ],
      "type": "VEC2"
    },
    {
      "bufferView": 1,
      "byteOffset": 50176,
      "componentType": 5126,
      "count": 48,
      "max": [
        0.9939893484115601,
        0.02732127532362938
      ],
      "min": [
        0.0021372458431869745,
        0.0020172414369881153
      ],
      "type": "VEC2"
    },
    {
      "bufferView": 0,
      "byteOffset": 31440,
      "componentType": 5125,
      "count": 72,
      "type": "SCALAR"
    },
    {
      "bufferView": 2,
      "byteOffset": 37920,
      "componentType": 5126,
      "count": 521,
      "max": [
        0.020284218713641167,
        0.00887775607407093,
        0.061104293912649155
      ],
      "min": [
        -0.14346352219581604,
        -0.0280015729367733,
        -0.10772331804037094
      ],
      "type": "VEC3"
    },
    {
      "bufferView": 2,
      "byteOffset": 44172,
      "componentType": 5126,
      "count": 521,
      "max": [
        0.990854799747467,
        0.9968206286430359,
        0.9986657500267029
      ],
      "min": [
        -0.996368408203125,
        -0.9967038631439209,
        -0.9994817972183228
      ],
      "type": "VEC3"
    },
    {
      "bufferView": 3,
      "byteOffset": 25280,
      "componentType": 5126,
      "count": 521,
      "max": [
        0.9912871718406677,
        0.9978365898132324,
        0.9979169368743896,
        1.0
      ],
      "min": [
        -0.9938093423843384,
        -0.9996054768562317,
        -0.9983558058738708,
        1.0
      ],
      "type": "VEC4"
    },
    {
      "bufferView": 1,
      "byteOffset": 50560,
      "componentType": 5126,
      "count": 521,
      "max": [
        0.9798657894134521,
        0.9828569889068604
      ],
      "min": [
        0.0022428184747695923,
        0.0020190179347991943
      ],
      "type": "VEC2"
    },
    {
      "bufferView": 1,
      "byteOffset": 54728,
      "componentType": 5126,
      "count": 521,
      "max": [
        0.9798657894134521,
        0.9828569889068604
      ],
      "min": [
        0.0022428184747695923,
        0.0020190179347991943
      ],
      "type": "VEC2"
    },
    {
      "bufferView": 1,
      "byteOffset": 58896,
      "componentType": 5126,
      "count": 521,
      "max": [
        0.9798657894134521,
        0.9828569889068604
      ],
      "min": [
        0.0022428184747695923,
        0.0020190179347991943
      ],
      "type": "VEC2"
    },
    {
      "bufferView": 1,
      "byteOffset": 63064,
      "componentType": 5126,
      "count": 521,
      "max": [
        0.9798657894134521,
        0.9828569889068604
      ],
      "min": [
        0.0022428184747695923,
        0.0020190179347991943
      ],
      "type": "VEC2"
    },
    {
      "bufferView": 0,
      "byteOffset": 31728,
      "componentType": 5125,
      "count": 2136,
      "type": "SCALAR"
    }
  ],
  "asset": {
    "extras": {
      "author": "Amad Junaid (https://sketchfab.com/amadjunaid)",
      "license": "CC-BY-4.0 (http://creativecommons.org/licenses/by/4.0/)",
      "source": "https://sketchfab.com/3d-models/bloody-glasses-ac8392965ad443e286ac5fa9c1a35bf5",
      "title": "Bloody Glasses"
    },
    "generator": "Sketchfab-12.65.0",
    "version": "2.0"
  },
  "bufferViews": [
    {
      "buffer": 0,
      "byteLength": 40272,
      "name": "floatBufferViews",
      "target": 34963
    },
    {
      "buffer": 0,
      "byteLength": 67232,
      "byteOffset": 40272,
      "byteStride": 8,
      "name": "floatBufferViews",
      "target": 34962
    },
    {
      "buffer": 0,
      "byteLength": 50424,
      "byteOffset": 107504,
      "byteStride": 12,
      "name": "floatBufferViews",
      "target": 34962
    },
    {
      "buffer": 0,
      "byteLength": 33616,
      "byteOffset": 157928,
      "byteStride": 16,
      "name": "floatBufferViews",
      "target": 34962
    }
  ],
  "buffers": [
    {
      "byteLength": 191544,
      "uri": "scene.bin"
    }
  ],
  "extensionsUsed": [
    "KHR_materials_transmission"
  ],
  "images": [
    {
      "uri": "textures/Glasses_PBR_Sheesha_baseColor.png"
    },
    {
      "uri": "textures/Glasses_PBR_Sheesha_metallicRoughness.png"
    },
    {
      "uri": "textures/Glasses_PBR_Sheesha_normal.png"
    },
    {
      "uri": "textures/Glasses_PBR_Sheesha_transmission.png"
    }
  ],
  "materials": [
    {
      "alphaMode": "BLEND",
      "doubleSided": true,
      "extensions": {
        "KHR_materials_transmission": {
          "transmissionFactor": 1.0,
          "transmissionTexture": {
            "index": 3
          }
        }
      },
      "name": "Glasses_PBR_Sheesha",
      "normalTexture": {
        "index": 2
      },
      "pbrMetallicRoughness": {
        "baseColorFactor": [
          0.9022800986427694,
          0.9629945180501788,
          1.0,
          1.0
        ],
        "baseColorTexture": {
          "index": 0
        },
        "metallicRoughnessTexture": {
          "index": 1
        }
      }
    },
    {
      "alphaMode": "BLEND",
      "name": "Glasses_PBR",
      "normalTexture": {
        "index": 2
      },
      "pbrMetallicRoughness": {
        "baseColorTexture": {
          "index": 0
        },
        "metallicRoughnessTexture": {
          "index": 1
        }
      }
    },
    {
      "alphaMode": "BLEND",
      "extensions": {
        "KHR_materials_transmission": {
          "transmissionFactor": 1.0,
          "transmissionTexture": {
            "index": 3
          }
        }
      },
      "name": "Glasses_PBR_Nose",
      "normalTexture": {
        "index": 2
      },
      "pbrMetallicRoughness": {
        "baseColorTexture": {
          "index": 0
        },
        "metallicRoughnessTexture": {
          "index": 1
        }
      }
    }
  ],
  "meshes": [
    {
      "name": "Object_0",
      "primitives": [
        {
          "attributes": {
            "NORMAL": 1,
            "POSITION": 0,
            "TANGENT": 2,
            "TEXCOORD_0": 3,
            "TEXCOORD_1": 4,
            "TEXCOORD_2": 5,
            "TEXCOORD_3": 6
          },
          "indices": 7,
          "material": 0,
          "mode": 4
        }
      ]
    },
    {
      "name": "Object_1",
      "primitives": [
        {
          "attributes": {
            "NORMAL": 9,
            "POSITION": 8,
            "TANGENT": 10,
            "TEXCOORD_0": 11,
            "TEXCOORD_1": 12,
            "TEXCOORD_2": 13,
            "TEXCOORD_3": 14
          },
          "indices": 15,
          "material": 1,
          "mode": 4
        }
      ]
    },
    {
      "name": "Object_2",
      "primitives": [
        {
          "attributes": {
            "NORMAL": 17,
            "POSITION": 16,
            "TANGENT": 18,
            "TEXCOORD_0": 19,
            "TEXCOORD_1": 20,
            "TEXCOORD_2": 21,
            "TEXCOORD_3": 22
          },
          "indices": 23,
          "material": 2,
          "mode": 4
        }
      ]
    },
    {
      "name": "Object_3",
      "primitives": [
        {
          "attributes": {
            "NORMAL": 25,
            "POSITION": 24,
            "TANGENT": 26,
            "TEXCOORD_0": 27,
            "TEXCOORD_1": 28,
            "TEXCOORD_2": 29,
            "TEXCOORD_3": 30
          },
          "indices": 31,
          "material": 1,
          "mode": 4
        }
      ]
    },
    {
      "name": "Object_4",
      "primitives": [
        {
          "attributes": {
            "NORMAL": 33,
            "POSITION": 32,
            "TANGENT": 34,
            "TEXCOORD_0": 35,
            "TEXCOORD_1": 36,
            "TEXCOORD_2": 37,
            "TEXCOORD_3": 38
          },
          "indices": 39,
          "material": 1,
          "mode": 4
        }
      ]
    }
  ],
  "nodes": [
    {
      "children": [
        1
      ],
      "matrix": [
        1.0,
        0.0,
        0.0,
        0.0,
        0.0,
        2.220446049250313e-16,
        -1.0,
        0.0,
        0.0,
        1.0,
        2.220446049250313e-16,
        0.0,
        0.0,
        0.0,
        0.0,
        1.0
      ],
      "name": "Sketchfab_model"
    },
    {
      "children": [
        2
      ],
      "name": "root"
    },
    {
      "children": [
        3,
        5,
        8,
        10
      ],
      "matrix": [
        1.0,
        0.0,
        0.0,
        0.0,
        0.0,
        2.220446049250313e-16,
        1.0,
        0.0,
        0.0,
        -1.0,
        2.220446049250313e-16,
        0.0,
        0.0,
        0.0,
        0.0,
        1.0
      ],
      "name": "GLTF_SceneRootNode"
    },
    {
      "children": [
        4
      ],
      "matrix": [
        1.0,
        0.0,
        0.0,
        0.0,
        0.0,
        1.0,
        0.0,
        0.0,
        0.0,
        0.0,
        1.0,
        0.0,
        -1.8889268176280893e-05,
        0.027316182851791382,
        -6.709352874167962e-06,
        1.0
      ],
      "name": "Glasses_Lo_dec_0"
    },
    {
      "mesh": 0,
      "name": "Object_4"
    },
    {
      "children": [
        6,
        7
      ],
      "matrix": [
        1.0,
        0.0,
        0.0,
        0.0,
        0.0,
        1.0,
        0.0,
        0.0,
        0.0,
        0.0,
        1.0,
        0.0,
        -1.8835067749023438e-05,
        0.027316167950630188,
        -6.198883056640625e-06,
        1.0
      ],
      "name": "Body_Lo_1"
    },
    {
      "mesh": 1,
      "name": "Object_6"
    },
    {
      "mesh": 2,
      "name": "Object_7"
    },
    {
      "children": [
        9
      ],
      "matrix": [
        1.0,
        0.0,
        0.0,
        0.0,
        0.0,
        1.0,
        0.0,
        0.0,
        0.0,
        0.0,
        1.0,
        0.0,
        -1.8835067749023438e-05,
        0.027316167950630188,
        -6.198883056640625e-06,
        1.0
      ],
      "name": "Body_1_Lo_2"
    },
    {
      "mesh": 3,
      "name": "Object_9"
    },
    {
      "children": [
        11
      ],
      "matrix": [
        1.0,
        0.0,
        0.0,
        0.0,
        0.0,
        1.0,
        0.0,
        0.0,
        0.0,
        0.0,
        1.0,
        0.0,
        -1.8835067749023438e-05,
        0.027316167950630188,
        -6.198883056640625e-06,
        1.0
      ],
      "name": "Body_2_Lo_3"
    },
    {
      "mesh": 4,
      "name": "Object_11"
    }
  ],
  "samplers": [
    {
      "magFilter": 9729,
      "minFilter": 9987,
      "wrapS": 10497,
      "wrapT": 10497
    }
  ],
  "scene": 0,
  "scenes": [
    {
      "name": "Sketchfab_Scene",
      "nodes": [
        0
      ]
    }
  ],
  "textures": [
    {
      "sampler": 0,
      "source": 0
    },
    {
      "sampler": 0,
      "source": 1
    },
    {
      "sampler": 0,
      "source": 2
    },
    {
      "sampler": 0,
      "source": 3
    }
  ]
}
