{
  "accessors": [
    {
      "bufferView": 2,
      "componentType": 5126,
      "count": 190,
      "max": [
        4.593109130859375,
        57.936553955078125,
        3.534891128540039
      ],
      "min": [
        -19.843544006347656,
        -56.675750732421875,
        -4.071183204650879
      ],
      "type": "VEC3"
    },
    {
      "bufferView": 2,
      "byteOffset": 2280,
      "componentType": 5126,
      "count": 190,
      "max": [
        1.0,
        0.9928329586982727,
        0.9982616305351257
      ],
      "min": [
        -0.9308422803878784,
        -0.9999024271965027,
        -0.9987491369247437
      ],
      "type": "VEC3"
    },
    {
      "bufferView": 3,
      "componentType": 5126,
      "count": 190,
      "max": [
        0.9979624152183533,
        0.7433956861495972,
        0.9843800663948059,
        1.0
      ],
      "min": [
        -0.9977117776870728,
        -0.9836293458938599,
        -0.9999489188194275,
        1.0
      ],
      "type": "VEC4"
    },
    {
      "bufferView": 1,
      "componentType": 5126,
      "count": 190,
      "max": [
        0.9260463714599609,
        0.9896755218505859
      ],
      "min": [
        0.04570889472961426,
        0.009471893310546875
      ],
      "type": "VEC2"
    },
    {
      "bufferView": 0,
      "componentType": 5125,
      "count": 843,
      "type": "SCALAR"
    }
  ],
  "asset": {
    "extras": {
      "author": "Georgia.Perry (https://sketchfab.com/Georgia.Perry)",
      "license": "CC-BY-4.0 (http://creativecommons.org/licenses/by/4.0/)",
      "source": "https://sketchfab.com/3d-models/bloody-axe-711a137aa049452894b342c9c7cdd34f",
      "title": "Bloody Axe"
    },
    "generator": "Sketchfab-12.67.0",
    "version": "2.0"
  },
  "bufferViews": [
    {
      "buffer": 0,
      "byteLength": 3372,
      "name": "floatBufferViews",
      "target": 34963
    },
    {
      "buffer": 0,
      "byteLength": 1520,
      "byteOffset": 3372,
      "byteStride": 8,
      "name": "floatBufferViews",
      "target": 34962
    },
    {
      "buffer": 0,
      "byteLength": 4560,
      "byteOffset": 4892,
      "byteStride": 12,
      "name": "floatBufferViews",
      "target": 34962
    },
    {
      "buffer": 0,
      "byteLength": 3040,
      "byteOffset": 9452,
      "byteStride": 16,
      "name": "floatBufferViews",
      "target": 34962
    }
  ],
  "buffers": [
    {
      "byteLength": 12492,
      "uri": "scene.bin"
    }
  ],
  "images": [
    {
      "uri": "textures/StingrayPBS1_baseColor.png"
    },
    {
      "uri": "textures/StingrayPBS1_metallicRoughness.png"
    },
    {
      "uri": "textures/StingrayPBS1_normal.png"
    }
  ],
  "materials": [
    {
      "doubleSided": true,
      "name": "StingrayPBS1",
      "normalTexture": {
        "index": 2
      },
      "occlusionTexture": {
        "index": 1
      },
      "pbrMetallicRoughness": {
        "baseColorTexture": {
          "index": 0
        },
        "metallicRoughnessTexture": {
          "index": 1
        }
      }
    }
  ],
  "meshes": [
    {
      "name": "Axe_StingrayPBS1_0",
      "primitives": [
        {
          "attributes": {
            "NORMAL": 1,
            "POSITION": 0,
            "TANGENT": 2,
            "TEXCOORD_0": 3
          },
          "indices": 4,
          "material": 0,
          "mode": 4
        }
      ]
    }
  ],
  "nodes": [
    {
      "children": [
        1
      ],
      "matrix": [
        1.0,
        0.0,
        0.0,
        0.0,
        0.0,
        2.220446049250313e-16,
        -1.0,
        0.0,
        0.0,
        1.0,
        2.220446049250313e-16,
        0.0,
        0.0,
        0.0,
        0.0,
        1.0
      ],
      "name": "Sketchfab_model"
    },
    {
      "children": [
        2
      ],
      "matrix": [
        1.0,
        0.0,
        0.0,
        0.0,
        0.0,
        0.0,
        1.0,
        0.0,
        0.0,
        -1.0,
        0.0,
        0.0,
        0.0,
        0.0,
        0.0,
        1.0
      ],
      "name": "abe268719bd8497492b64a0ee93b5e2b.fbx"
    },
    {
      "children": [
        3
      ],
      "name": "RootNode"
    },
    {
      "children": [
        4
      ],
      "name": "Axe"
    },
    {
      "mesh": 0,
      "name": "Axe_StingrayPBS1_0"
    }
  ],
  "samplers": [
    {
      "magFilter": 9729,
      "minFilter": 9987,
      "wrapS": 10497,
      "wrapT": 10497
    }
  ],
  "scene": 0,
  "scenes": [
    {
      "name": "Sketchfab_Scene",
      "nodes": [
        0
      ]
    }
  ],
  "textures": [
    {
      "sampler": 0,
      "source": 0
    },
    {
      "sampler": 0,
      "source": 1
    },
    {
      "sampler": 0,
      "source": 2
    }
  ]
}
