{
  "accessors": [
    {
      "bufferView": 2,
      "componentType": 5126,
      "count": 37740,
      "max": [
        0.397599995136261,
        0.65420001745224,
        -1.0336999893188477
      ],
      "min": [
        -0.7634999752044678,
        -0.675599992275238,
        -6.295300006866455
      ],
      "type": "VEC3"
    },
    {
      "bufferView": 2,
      "byteOffset": 452880,
      "componentType": 5126,
      "count": 37740,
      "max": [
        0.9999852180480957,
        0.9999730587005615,
        0.999770998954773
      ],
      "min": [
        -0.9999933242797852,
        -0.9999562501907349,
        -0.9997771978378296
      ],
      "type": "VEC3"
    },
    {
      "bufferView": 1,
      "componentType": 5126,
      "count": 37740,
      "max": [
        1.8924000263214111,
        0.9994999766349792
      ],
      "min": [
        -0.06390000134706497,
        0.0005000000237487257
      ],
      "type": "VEC2"
    },
    {
      "bufferView": 0,
      "componentType": 5125,
      "count": 208320,
      "type": "SCALAR"
    },
    {
      "bufferView": 2,
      "byteOffset": 905760,
      "componentType": 5126,
      "count": 65532,
      "max": [
        2.291599988937378,
        2.3232998847961426,
        -0.6577000021934509
      ],
      "min": [
        -2.530600070953369,
        -2.801100015640259,
        -8.172900199890137
      ],
      "type": "VEC3"
    },
    {
      "bufferView": 2,
      "byteOffset": 1692144,
      "componentType": 5126,
      "count": 65532,
      "max": [
        0.9999715089797974,
        0.9999123811721802,
        0.9999797344207764
      ],
      "min": [
        -0.9999759197235107,
        -0.9999979734420776,
        -0.9999997615814209
      ],
      "type": "VEC3"
    },
    {
      "bufferView": 1,
      "byteOffset": 301920,
      "componentType": 5126,
      "count": 65532,
      "max": [
        1.0,
        1.0
      ],
      "min": [
        0.0,
        0.0
      ],
      "type": "VEC2"
    },
    {
      "bufferView": 0,
      "byteOffset": 833280,
      "componentType": 5125,
      "count": 355668,
      "type": "SCALAR"
    },
    {
      "bufferView": 2,
      "byteOffset": 2478528,
      "componentType": 5126,
      "count": 35326,
      "max": [
        2.530600070953369,
        2.801100015640259,
        -1.989400029182434
      ],
      "min": [
        -2.530600070953369,
        -2.392199993133545,
        -6.385900020599365
      ],
      "type": "VEC3"
    },
    {
      "bufferView": 2,
      "byteOffset": 2902440,
      "componentType": 5126,
      "count": 35326,
      "max": [
        0.999722957611084,
        0.9998985528945923,
        0.9999954700469971
      ],
      "min": [
        -0.9997029304504395,
        -0.9998112916946411,
        -0.9999938011169434
      ],
      "type": "VEC3"
    },
    {
      "bufferView": 1,
      "byteOffset": 826176,
      "componentType": 5126,
      "count": 35326,
      "max": [
        1.0,
        1.0
      ],
      "min": [
        0.0,
        0.0
      ],
      "type": "VEC2"
    },
    {
      "bufferView": 0,
      "byteOffset": 2255952,
      "componentType": 5125,
      "count": 190032,
      "type": "SCALAR"
    },
    {
      "bufferView": 2,
      "byteOffset": 3326352,
      "componentType": 5126,
      "count": 65533,
      "max": [
        0.6312999725341797,
        0.8436999917030334,
        0.0
      ],
      "min": [
        -1.1416000127792358,
        -0.9291999936103821,
        -1.3142000436782837
      ],
      "type": "VEC3"
    },
    {
      "bufferView": 2,
      "byteOffset": 4112748,
      "componentType": 5126,
      "count": 65533,
      "max": [
        1.0,
        1.0,
        0.013358156196773052
      ],
      "min": [
        -1.0,
        -1.0,
        -1.0
      ],
      "type": "VEC3"
    },
    {
      "bufferView": 1,
      "byteOffset": 1108784,
      "componentType": 5126,
      "count": 65533,
      "max": [
        1.0012999773025513,
        0.9994999766349792
      ],
      "min": [
        -0.0013000000035390258,
        0.0005000000237487257
      ],
      "type": "VEC2"
    },
    {
      "bufferView": 0,
      "byteOffset": 3016080,
      "componentType": 5125,
      "count": 101079,
      "type": "SCALAR"
    },
    {
      "bufferView": 2,
      "byteOffset": 4899144,
      "componentType": 5126,
      "count": 65532,
      "max": [
        0.5848000049591064,
        0.6583999991416931,
        0.0
      ],
      "min": [
        -1.141700029373169,
        -0.9291999936103821,
        -1.3142000436782837
      ],
      "type": "VEC3"
    },
    {
      "bufferView": 2,
      "byteOffset": 5685528,
      "componentType": 5126,
      "count": 65532,
      "max": [
        0.9486815929412842,
        0.7904178500175476,
        0.013271932490170002
      ],
      "min": [
        -1.0,
        -1.0,
        -0.013222221285104752
      ],
      "type": "VEC3"
    },
    {
      "bufferView": 1,
      "byteOffset": 1633048,
      "componentType": 5126,
      "count": 65532,
      "max": [
        1.0012999773025513,
        0.9994999766349792
      ],
      "min": [
        -0.0013000000035390258,
        0.0005000000237487257
      ],
      "type": "VEC2"
    },
    {
      "bufferView": 0,
      "byteOffset": 3420396,
      "componentType": 5125,
      "count": 99882,
      "type": "SCALAR"
    },
    {
      "bufferView": 2,
      "byteOffset": 6471912,
      "componentType": 5126,
      "count": 65534,
      "max": [
        0.29829999804496765,
        0.8436999917030334,
        0.0
      ],
      "min": [
        -1.0951999425888062,
        -0.7922999858856201,
        -1.3142000436782837
      ],
      "type": "VEC3"
    },
    {
      "bufferView": 2,
      "byteOffset": 7258320,
      "componentType": 5126,
      "count": 65534,
      "max": [
        0.6222496032714844,
        1.0,
        0.013361984863877296
      ],
      "min": [
        -0.9486886858940125,
        -0.8468925356864929,
        -0.013361915946006775
      ],
      "type": "VEC3"
    },
    {
      "bufferView": 1,
      "byteOffset": 2157304,
      "componentType": 5126,
      "count": 65534,
      "max": [
        0.6072999835014343,
        0.9994999766349792
      ],
      "min": [
        0.08959999680519104,
        0.0005000000237487257
      ],
      "type": "VEC2"
    },
    {
      "bufferView": 0,
      "byteOffset": 3819924,
      "componentType": 5125,
      "count": 99966,
      "type": "SCALAR"
    },
    {
      "bufferView": 2,
      "byteOffset": 8044728,
      "componentType": 5126,
      "count": 5267,
      "max": [
        0.41929998993873596,
        0.7483999729156494,
        0.0
      ],
      "min": [
        0.14470000565052032,
        0.5324000120162964,
        -1.3142000436782837
      ],
      "type": "VEC3"
    },
    {
      "bufferView": 2,
      "byteOffset": 8107932,
      "componentType": 5126,
      "count": 5267,
      "max": [
        0.7649096846580505,
        0.890437662601471,
        0.01118945237249136
      ],
      "min": [
        0.45510533452033997,
        0.6441375613212585,
        -0.011189411394298077
      ],
      "type": "VEC3"
    },
    {
      "bufferView": 1,
      "byteOffset": 2681576,
      "componentType": 5126,
      "count": 5267,
      "max": [
        0.6376000046730042,
        0.9994999766349792
      ],
      "min": [
        0.5745000243186951,
        0.0005000000237487257
      ],
      "type": "VEC2"
    },
    {
      "bufferView": 0,
      "byteOffset": 4219788,
      "componentType": 5125,
      "count": 7953,
      "type": "SCALAR"
    },
    {
      "bufferView": 2,
      "byteOffset": 8171136,
      "componentType": 5126,
      "count": 130,
      "max": [
        0.6166999936103821,
        0.8291000127792358,
        -0.003700000001117587
      ],
      "min": [
        -1.1270999908447266,
        -0.9146999716758728,
        -1.2375999689102173
      ],
      "type": "VEC3"
    },
    {
      "bufferView": 2,
      "byteOffset": 8172696,
      "componentType": 5126,
      "count": 130,
      "max": [
        0.7278218269348145,
        0.7278218269348145,
        0.6858237385749817
      ],
      "min": [
        -0.7278218269348145,
        -0.7279402017593384,
        -0.6858237385749817
      ],
      "type": "VEC3"
    },
    {
      "bufferView": 1,
      "byteOffset": 2723712,
      "componentType": 5126,
      "count": 130,
      "max": [
        1.0,
        1.0
      ],
      "min": [
        0.0,
        0.0
      ],
      "type": "VEC2"
    },
    {
      "bufferView": 0,
      "byteOffset": 4251600,
      "componentType": 5125,
      "count": 372,
      "type": "SCALAR"
    },
    {
      "bufferView": 2,
      "byteOffset": 8174256,
      "componentType": 5126,
      "count": 3265,
      "max": [
        0.6198999881744385,
        0.8323000073432922,
        -1.2229000329971313
      ],
      "min": [
        -1.1303000450134277,
        -0.9178000092506409,
        -1.3030999898910522
      ],
      "type": "VEC3"
    },
    {
      "bufferView": 2,
      "byteOffset": 8213436,
      "componentType": 5126,
      "count": 3265,
      "max": [
        0.48613935708999634,
        0.6008648872375488,
        -0.746866762638092
      ],
      "min": [
        -0.5249004364013672,
        -0.5016142129898071,
        -0.9999969005584717
      ],
      "type": "VEC3"
    },
    {
      "bufferView": 1,
      "byteOffset": 2724752,
      "componentType": 5126,
      "count": 3265,
      "max": [
        0.9994999766349792,
        0.9994999766349792
      ],
      "min": [
        0.0005000000237487257,
        0.0005000000237487257
      ],
      "type": "VEC2"
    },
    {
      "bufferView": 0,
      "byteOffset": 4253088,
      "componentType": 5125,
      "count": 19200,
      "type": "SCALAR"
    }
  ],
  "asset": {
    "extras": {
      "author": "Lahcen.el (https://sketchfab.com/Lahcen.el)",
      "license": "CC-BY-4.0 (http://creativecommons.org/licenses/by/4.0/)",
      "source": "https://sketchfab.com/3d-models/house-plant-ff00360145c444ef9b63ec27644e9a58",
      "title": "House plant"
    },
    "generator": "Sketchfab-12.67.0",
    "version": "2.0"
  },
  "bufferViews": [
    {
      "buffer": 0,
      "byteLength": 4329888,
      "name": "floatBufferViews",
      "target": 34963
    },
    {
      "buffer": 0,
      "byteLength": 2750872,
      "byteOffset": 4329888,
      "byteStride": 8,
      "name": "floatBufferViews",
      "target": 34962
    },
    {
      "buffer": 0,
      "byteLength": 8252616,
      "byteOffset": 7080760,
      "byteStride": 12,
      "name": "floatBufferViews",
      "target": 34962
    }
  ],
  "buffers": [
    {
      "byteLength": 15333376,
      "uri": "scene.bin"
    }
  ],
  "images": [
    {
      "uri": "textures/broun_baseColor.png"
    },
    {
      "uri": "textures/green_baseColor.jpeg"
    },
    {
      "uri": "textures/black_st_baseColor.jpeg"
    },
    {
      "uri": "textures/st_red_baseColor.jpeg"
    },
    {
      "uri": "textures/st_leather_baseColor.png"
    }
  ],
  "materials": [
    {
      "doubleSided": true,
      "name": "broun",
      "pbrMetallicRoughness": {
        "baseColorTexture": {
          "index": 0
        },
        "metallicFactor": 0.0,
        "roughnessFactor": 0.6
      }
    },
    {
      "doubleSided": true,
      "name": "green",
      "pbrMetallicRoughness": {
        "baseColorTexture": {
          "index": 1
        },
        "metallicFactor": 0.0,
        "roughnessFactor": 0.6
      }
    },
    {
      "doubleSided": true,
      "name": "black_st",
      "pbrMetallicRoughness": {
        "baseColorTexture": {
          "index": 2
        },
        "metallicFactor": 0.0,
        "roughnessFactor": 0.6
      }
    },
    {
      "doubleSided": true,
      "name": "st_red",
      "pbrMetallicRoughness": {
        "baseColorTexture": {
          "index": 3
        },
        "metallicFactor": 0.0,
        "roughnessFactor": 0.6
      }
    },
    {
      "doubleSided": true,
      "name": "st_leather",
      "pbrMetallicRoughness": {
        "baseColorTexture": {
          "index": 4
        },
        "metallicFactor": 0.0,
        "roughnessFactor": 0.6
      }
    }
  ],
  "meshes": [
    {
      "name": "Object_0",
      "primitives": [
        {
          "attributes": {
            "NORMAL": 1,
            "POSITION": 0,
            "TEXCOORD_0": 2
          },
          "indices": 3,
          "material": 0,
          "mode": 4
        }
      ]
    },
    {
      "name": "Object_1",
      "primitives": [
        {
          "attributes": {
            "NORMAL": 5,
            "POSITION": 4,
            "TEXCOORD_0": 6
          },
          "indices": 7,
          "material": 1,
          "mode": 4
        }
      ]
    },
    {
      "name": "Object_2",
      "primitives": [
        {
          "attributes": {
            "NORMAL": 9,
            "POSITION": 8,
            "TEXCOORD_0": 10
          },
          "indices": 11,
          "material": 1,
          "mode": 4
        }
      ]
    },
    {
      "name": "Object_3",
      "primitives": [
        {
          "attributes": {
            "NORMAL": 13,
            "POSITION": 12,
            "TEXCOORD_0": 14
          },
          "indices": 15,
          "material": 2,
          "mode": 4
        }
      ]
    },
    {
      "name": "Object_4",
      "primitives": [
        {
          "attributes": {
            "NORMAL": 17,
            "POSITION": 16,
            "TEXCOORD_0": 18
          },
          "indices": 19,
          "material": 2,
          "mode": 4
        }
      ]
    },
    {
      "name": "Object_5",
      "primitives": [
        {
          "attributes": {
            "NORMAL": 21,
            "POSITION": 20,
            "TEXCOORD_0": 22
          },
          "indices": 23,
          "material": 2,
          "mode": 4
        }
      ]
    },
    {
      "name": "Object_6",
      "primitives": [
        {
          "attributes": {
            "NORMAL": 25,
            "POSITION": 24,
            "TEXCOORD_0": 26
          },
          "indices": 27,
          "material": 2,
          "mode": 4
        }
      ]
    },
    {
      "name": "Object_7",
      "primitives": [
        {
          "attributes": {
            "NORMAL": 29,
            "POSITION": 28,
            "TEXCOORD_0": 30
          },
          "indices": 31,
          "material": 3,
          "mode": 4
        }
      ]
    },
    {
      "name": "Object_8",
      "primitives": [
        {
          "attributes": {
            "NORMAL": 33,
            "POSITION": 32,
            "TEXCOORD_0": 34
          },
          "indices": 35,
          "material": 4,
          "mode": 4
        }
      ]
    }
  ],
  "nodes": [
    {
      "children": [
        1
      ],
      "matrix": [
        1.0,
        0.0,
        0.0,
        0.0,
        0.0,
        2.220446049250313e-16,
        -1.0,
        0.0,
        0.0,
        1.0,
        2.220446049250313e-16,
        0.0,
        0.0,
        0.0,
        0.0,
        1.0
      ],
      "name": "Sketchfab_model"
    },
    {
      "children": [
        2
      ],
      "name": "root"
    },
    {
      "children": [
        3
      ],
      "matrix": [
        1.0,
        0.0,
        0.0,
        0.0,
        0.0,
        2.220446049250313e-16,
        1.0,
        0.0,
        0.0,
        -1.0,
        2.220446049250313e-16,
        0.0,
        0.0,
        0.0,
        0.0,
        1.0
      ],
      "name": "GLTF_SceneRootNode"
    },
    {
      "children": [
        4,
        5,
        6,
        7,
        8,
        9,
        10,
        11,
        12
      ],
      "matrix": [
        1.0,
        0.0,
        0.0,
        0.0,
        0.0,
        -1.685873969314855e-07,
        0.9999999999999858,
        0.0,
        0.0,
        -0.9999999999999858,
        -1.685873969314855e-07,
        0.0,
        0.0,
        0.0,
        0.0,
        1.0
      ],
      "name": "Plant house Mano de leon N251220_0"
    },
    {
      "mesh": 0,
      "name": "Object_4"
    },
    {
      "mesh": 1,
      "name": "Object_5"
    },
    {
      "mesh": 2,
      "name": "Object_6"
    },
    {
      "mesh": 3,
      "name": "Object_7"
    },
    {
      "mesh": 4,
      "name": "Object_8"
    },
    {
      "mesh": 5,
      "name": "Object_9"
    },
    {
      "mesh": 6,
      "name": "Object_10"
    },
    {
      "mesh": 7,
      "name": "Object_11"
    },
    {
      "mesh": 8,
      "name": "Object_12"
    }
  ],
  "samplers": [
    {
      "magFilter": 9729,
      "minFilter": 9987,
      "wrapS": 10497,
      "wrapT": 10497
    }
  ],
  "scene": 0,
  "scenes": [
    {
      "name": "Sketchfab_Scene",
      "nodes": [
        0
      ]
    }
  ],
  "textures": [
    {
      "sampler": 0,
      "source": 0
    },
    {
      "sampler": 0,
      "source": 1
    },
    {
      "sampler": 0,
      "source": 2
    },
    {
      "sampler": 0,
      "source": 3
    },
    {
      "sampler": 0,
      "source": 4
    }
  ]
}
