{
  "accessors": [
    {
      "bufferView": 2,
      "componentType": 5126,
      "count": 6259,
      "max": [
        270.4034118652344,
        814.2990112304688,
        84.81309509277344
      ],
      "min": [
        -199.30978393554688,
        25.29730224609375,
        -93.71080017089844
      ],
      "type": "VEC3"
    },
    {
      "bufferView": 2,
      "byteOffset": 75108,
      "componentType": 5126,
      "count": 6259,
      "max": [
        0.9998177886009216,
        0.9981468319892883,
        0.9998310208320618
      ],
      "min": [
        -0.9999172687530518,
        -0.9999881982803345,
        -0.9995766878128052
      ],
      "type": "VEC3"
    },
    {
      "bufferView": 1,
      "componentType": 5126,
      "count": 6259,
      "max": [
        0.9909999966621399,
        0.9940000176429749
      ],
      "min": [
        0.007899999618530273,
        0.007499999832361937
      ],
      "type": "VEC2"
    },
    {
      "bufferView": 1,
      "byteOffset": 50072,
      "componentType": 5126,
      "count": 6259,
      "max": [
        0.9909999966621399,
        0.9940000176429749
      ],
      "min": [
        0.007899999618530273,
        0.007499999832361937
      ],
      "type": "VEC2"
    },
    {
      "bufferView": 0,
      "componentType": 5125,
      "count": 29742,
      "type": "SCALAR"
    },
    {
      "bufferView": 2,
      "byteOffset": 150216,
      "componentType": 5126,
      "count": 21,
      "max": [
        64.4468994140625,
        759.0228271484375,
        57.76679992675781
      ],
      "min": [
        43.09299850463867,
        749.2318725585938,
        45.98109817504883
      ],
      "type": "VEC3"
    },
    {
      "bufferView": 2,
      "byteOffset": 150468,
      "componentType": 5126,
      "count": 21,
      "max": [
        0.7486270070075989,
        0.5143105983734131,
        0.9869072437286377
      ],
      "min": [
        0.09624238312244415,
        -0.7419350743293762,
        0.2701764702796936
      ],
      "type": "VEC3"
    },
    {
      "bufferView": 1,
      "byteOffset": 100144,
      "componentType": 5126,
      "count": 21,
      "max": [
        0.4871000051498413,
        0.6455000042915344
      ],
      "min": [
        0.4343000054359436,
        0.5618000030517578
      ],
      "type": "VEC2"
    },
    {
      "bufferView": 1,
      "byteOffset": 100312,
      "componentType": 5126,
      "count": 21,
      "max": [
        0.4871000051498413,
        0.6455000042915344
      ],
      "min": [
        0.4343000054359436,
        0.5618000030517578
      ],
      "type": "VEC2"
    },
    {
      "bufferView": 0,
      "byteOffset": 118968,
      "componentType": 5125,
      "count": 57,
      "type": "SCALAR"
    },
    {
      "bufferView": 2,
      "byteOffset": 150720,
      "componentType": 5126,
      "count": 82,
      "max": [
        60.15620040893555,
        765.211669921875,
        55.51940155029297
      ],
      "min": [
        11.103500366210938,
        740.727294921875,
        40.87099838256836
      ],
      "type": "VEC3"
    },
    {
      "bufferView": 2,
      "byteOffset": 151704,
      "componentType": 5126,
      "count": 82,
      "max": [
        0.9588953852653503,
        0.971919596195221,
        0.9832499027252197
      ],
      "min": [
        -0.9588982462882996,
        -0.928396999835968,
        0.11614982783794403
      ],
      "type": "VEC3"
    },
    {
      "bufferView": 1,
      "byteOffset": 100480,
      "componentType": 5126,
      "count": 82,
      "max": [
        0.510200023651123,
        0.11110000312328339
      ],
      "min": [
        0.42590001225471497,
        0.02449999935925007
      ],
      "type": "VEC2"
    },
    {
      "bufferView": 1,
      "byteOffset": 101136,
      "componentType": 5126,
      "count": 82,
      "max": [
        0.510200023651123,
        0.11110000312328339
      ],
      "min": [
        0.42590001225471497,
        0.02449999935925007
      ],
      "type": "VEC2"
    },
    {
      "bufferView": 0,
      "byteOffset": 119196,
      "componentType": 5125,
      "count": 420,
      "type": "SCALAR"
    },
    {
      "bufferView": 2,
      "byteOffset": 152688,
      "componentType": 5126,
      "count": 215,
      "max": [
        35.98030090332031,
        787.1104125976563,
        65.910400390625
      ],
      "min": [
        -3.125598907470703,
        702.6798095703125,
        31.051097869873047
      ],
      "type": "VEC3"
    },
    {
      "bufferView": 2,
      "byteOffset": 155268,
      "componentType": 5126,
      "count": 215,
      "max": [
        0.9779674410820007,
        0.9958181381225586,
        0.9902178645133972
      ],
      "min": [
        -0.9971444010734558,
        -0.9405032992362976,
        -0.9209694862365723
      ],
      "type": "VEC3"
    },
    {
      "bufferView": 1,
      "byteOffset": 101792,
      "componentType": 5126,
      "count": 215,
      "max": [
        0.9921000003814697,
        0.9437000155448914
      ],
      "min": [
        0.3882000148296356,
        0.6305999755859375
      ],
      "type": "VEC2"
    },
    {
      "bufferView": 1,
      "byteOffset": 103512,
      "componentType": 5126,
      "count": 215,
      "max": [
        0.9921000003814697,
        0.9437000155448914
      ],
      "min": [
        0.3882000148296356,
        0.6305999755859375
      ],
      "type": "VEC2"
    },
    {
      "bufferView": 0,
      "byteOffset": 120876,
      "componentType": 5125,
      "count": 504,
      "type": "SCALAR"
    },
    {
      "bufferView": 2,
      "byteOffset": 157848,
      "componentType": 5126,
      "count": 21,
      "max": [
        28.26020050048828,
        759.0228271484375,
        57.76679992675781
      ],
      "min": [
        6.906299591064453,
        749.2318725585938,
        45.98109817504883
      ],
      "type": "VEC3"
    },
    {
      "bufferView": 2,
      "byteOffset": 158100,
      "componentType": 5126,
      "count": 21,
      "max": [
        -0.09624233096837997,
        0.5143106579780579,
        0.9869071841239929
      ],
      "min": [
        -0.7486270666122437,
        -0.7419322729110718,
        0.2701764404773712
      ],
      "type": "VEC3"
    },
    {
      "bufferView": 1,
      "byteOffset": 105232,
      "componentType": 5126,
      "count": 21,
      "max": [
        0.4871000051498413,
        0.6455000042915344
      ],
      "min": [
        0.4343000054359436,
        0.5618000030517578
      ],
      "type": "VEC2"
    },
    {
      "bufferView": 1,
      "byteOffset": 105400,
      "componentType": 5126,
      "count": 21,
      "max": [
        0.4871000051498413,
        0.6455000042915344
      ],
      "min": [
        0.4343000054359436,
        0.5618000030517578
      ],
      "type": "VEC2"
    },
    {
      "bufferView": 0,
      "byteOffset": 122892,
      "componentType": 5125,
      "count": 57,
      "type": "SCALAR"
    }
  ],
  "asset": {
    "extras": {
      "author": "sunliil (https://sketchfab.com/sunliil)",
      "license": "CC-BY-4.0 (http://creativecommons.org/licenses/by/4.0/)",
      "source": "https://sketchfab.com/3d-models/steel-girl-fc46a7e4108948849f3a0d848f35aff7",
      "title": "Steel girl"
    },
    "generator": "Sketchfab-12.67.0",
    "version": "2.0"
  },
  "bufferViews": [
    {
      "buffer": 0,
      "byteLength": 123120,
      "name": "floatBufferViews",
      "target": 34963
    },
    {
      "buffer": 0,
      "byteLength": 105568,
      "byteOffset": 123120,
      "byteStride": 8,
      "name": "floatBufferViews",
      "target": 34962
    },
    {
      "buffer": 0,
      "byteLength": 158352,
      "byteOffset": 228688,
      "byteStride": 12,
      "name": "floatBufferViews",
      "target": 34962
    }
  ],
  "buffers": [
    {
      "byteLength": 387040,
      "uri": "scene.bin"
    }
  ],
  "extensionsUsed": [
    "KHR_materials_unlit"
  ],
  "images": [
    {
      "uri": "textures/01___Default_baseColor.png"
    },
    {
      "uri": "textures/01___Default_0_baseColor.png"
    }
  ],
  "materials": [
    {
      "doubleSided": true,
      "extensions": {
        "KHR_materials_unlit": {}
      },
      "name": "01___Default",
      "pbrMetallicRoughness": {
        "baseColorTexture": {
          "index": 0
        },
        "metallicFactor": 0.0
      }
    },
    {
      "doubleSided": true,
      "extensions": {
        "KHR_materials_unlit": {}
      },
      "name": "01___Default_0",
      "pbrMetallicRoughness": {
        "baseColorTexture": {
          "index": 1
        },
        "metallicFactor": 0.0
      }
    },
    {
      "doubleSided": true,
      "extensions": {
        "KHR_materials_unlit": {}
      },
      "name": "01___Default_1",
      "pbrMetallicRoughness": {
        "baseColorTexture": {
          "index": 1
        },
        "metallicFactor": 0.0
      }
    },
    {
      "doubleSided": true,
      "extensions": {
        "KHR_materials_unlit": {}
      },
      "name": "01___Default_2",
      "pbrMetallicRoughness": {
        "baseColorTexture": {
          "index": 1
        },
        "metallicFactor": 0.0
      }
    },
    {
      "doubleSided": true,
      "extensions": {
        "KHR_materials_unlit": {}
      },
      "name": "01___Default_3",
      "pbrMetallicRoughness": {
        "baseColorTexture": {
          "index": 1
        },
        "metallicFactor": 0.0
      }
    }
  ],
  "meshes": [
    {
      "name": "low2_01___Default_0",
      "primitives": [
        {
          "attributes": {
            "NORMAL": 1,
            "POSITION": 0,
            "TEXCOORD_0": 2,
            "TEXCOORD_1": 3
          },
          "indices": 4,
          "material": 0,
          "mode": 4
        }
      ]
    },
    {
      "name": "Object001_01___Default_0",
      "primitives": [
        {
          "attributes": {
            "NORMAL": 6,
            "POSITION": 5,
            "TEXCOORD_0": 7,
            "TEXCOORD_1": 8
          },
          "indices": 9,
          "material": 1,
          "mode": 4
        }
      ]
    },
    {
      "name": "Object004_01___Default_0",
      "primitives": [
        {
          "attributes": {
            "NORMAL": 11,
            "POSITION": 10,
            "TEXCOORD_0": 12,
            "TEXCOORD_1": 13
          },
          "indices": 14,
          "material": 2,
          "mode": 4
        }
      ]
    },
    {
      "name": "Object005_01___Default_0",
      "primitives": [
        {
          "attributes": {
            "NORMAL": 16,
            "POSITION": 15,
            "TEXCOORD_0": 17,
            "TEXCOORD_1": 18
          },
          "indices": 19,
          "material": 3,
          "mode": 4
        }
      ]
    },
    {
      "name": "Object006_01___Default_0",
      "primitives": [
        {
          "attributes": {
            "NORMAL": 21,
            "POSITION": 20,
            "TEXCOORD_0": 22,
            "TEXCOORD_1": 23
          },
          "indices": 24,
          "material": 4,
          "mode": 4
        }
      ]
    }
  ],
  "nodes": [
    {
      "children": [
        1
      ],
      "matrix": [
        1.0,
        0.0,
        0.0,
        0.0,
        0.0,
        2.220446049250313e-16,
        -1.0,
        0.0,
        0.0,
        1.0,
        2.220446049250313e-16,
        0.0,
        0.0,
        0.0,
        0.0,
        1.0
      ],
      "name": "Sketchfab_model"
    },
    {
      "children": [
        2
      ],
      "matrix": [
        1.0,
        0.0,
        0.0,
        0.0,
        0.0,
        0.0,
        1.0,
        0.0,
        0.0,
        -1.0,
        0.0,
        0.0,
        0.0,
        0.0,
        0.0,
        1.0
      ],
      "name": "final.fbx"
    },
    {
      "children": [
        3,
        5,
        7,
        9,
        11
      ],
      "name": "RootNode"
    },
    {
      "children": [
        4
      ],
      "name": "low2"
    },
    {
      "mesh": 0,
      "name": "low2_01___Default_0"
    },
    {
      "children": [
        6
      ],
      "name": "Object001"
    },
    {
      "mesh": 1,
      "name": "Object001_01___Default_0"
    },
    {
      "children": [
        8
      ],
      "name": "Object004"
    },
    {
      "mesh": 2,
      "name": "Object004_01___Default_0"
    },
    {
      "children": [
        10
      ],
      "name": "Object005"
    },
    {
      "mesh": 3,
      "name": "Object005_01___Default_0"
    },
    {
      "children": [
        12
      ],
      "name": "Object006"
    },
    {
      "mesh": 4,
      "name": "Object006_01___Default_0"
    }
  ],
  "samplers": [
    {
      "magFilter": 9729,
      "minFilter": 9987,
      "wrapS": 10497,
      "wrapT": 10497
    }
  ],
  "scene": 0,
  "scenes": [
    {
      "name": "Sketchfab_Scene",
      "nodes": [
        0
      ]
    }
  ],
  "textures": [
    {
      "sampler": 0,
      "source": 0
    },
    {
      "sampler": 0,
      "source": 1
    }
  ]
}
